# xmcd
#
# Track frame offsets: 
#        150
#        16152
#        32635
#        49515
#        61245
#        77007
#        95025
#        110760
#        126410
#        144432
#        159155
#        171605
#        186350
#        204907
#
# Disc length: 2942 seconds
#
# Revision: 2
# Processed by: cddbd v1.5.2PL0 Copyright (c) Steve Scherf et al.
# Submitted via: ExactAudioCopy v0.95a5
#
DISCID=bc0b7c0e
DTITLE=Various Artist - HOT HITS COUNTRY VOL 28
DYEAR=1900
DGENRE=Country
TTITLE0=GARTH BROOKS - American Honky Tonk Bar Association
TTITLE1=ALAN JACKSON - Mercury Blues
TTITLE2=BILLY RAY CYRUS - Somebody New
TTITLE3=MARTINA MCBRIDE - My Baby Loves Me
TTITLE4=DWIGHT YOAKAM - Fast As you
TTITLE5=LEE ROY PARNELL - On The Road
TTITLE6=LITTLE TEXAS - God Blessed Texas
TTITLE7=TANYA TUCKER - Soon
TTITLE8=RADNEY FOSTER - Hammer And Nails
TTITLE9=TRACY BYRD - Why Don't That Telephone Ring
TTITLE10=FAITH HILL - Wild One
TTITLE11=RICK TREVINO - Just Enough Rope
TTITLE12=TRAVIS TRITT - Worth Every Mile
TTITLE13=SAMMY KERSHAW - Queen Of My Double Wide Trailer
EXTD=
EXTT0=Brooks - Garth
EXTT1=Jackson - Alan
EXTT2=Cyrus - Billy Ray
EXTT3=McBride - Martina
EXTT4=Yoakam - Dwight
EXTT5=Parnell - Lee Roy
EXTT6=Little Texas
EXTT7=Tucker - Tanya
EXTT8=Foster - Radney
EXTT9=Byrd - Tracy
EXTT10=Hill - Faith
EXTT11=Trevino - Rick
EXTT12=Tritt - Travis
EXTT13=Kershaw - Sammy
PLAYORDER=
